<svg xmlns="http://www.w3.org/2000/svg" viewBox="0 0 1308.71 293.32"><defs><style>.cls-1{fill:#fff;}</style></defs><title>Element 1</title><g id="Ebene_2" data-name="Ebene 2"><g id="Meine_Ebene" data-name="Meine Ebene"><path class="cls-1" d="M2.12,38.61C30.46,30.39,67,24.79,100.33,21.43c2.46-7.47,5.35-14.2,7.81-20.18C119.64-4,145.55,8.36,152.94,14l-1.25,3.36,27.15-1.51c19.7-1.11,35.73,0,39.86,3.74,2,1.87,18.88,20.54,18.88,25.39,0,4.49-4.11,7.85-11.1,7.85-21.77.38-51.78,2.23-85.05,5.6-14.38,60.13-23.84,116.9-34.54,186,3.28,0,11.1-2.62,12.35.76,2.86,8.57-20.16,44.82-20.16,44.82-4.5,10.43-50.93-6.36-54.64-10.1,9.46-59,25.88-148.25,43.15-215.1-20.56,3-41.51,6.72-61.24,10.83C13.22,78.19-6.52,41.23,2.12,38.61Z"/><path class="cls-1" d="M232.3,73c7,2.62,12.32,6,13.56,9.34a41.43,41.43,0,0,1,18.91-4.47c55.46,0,64.53,36.6,63.28,75.81-2.46,41.45-22.59,131.09-90.83,131.09-55.89,0-76-51.94-74.38-93.37C165.31,142.43,199,80.06,232.3,73Zm-2.07,179.62c36.19,0,51-93.35,52.21-114.26.82-10.08,4.11-35.11-11.52-35.11-22.59,0-42.33,61.62-46.83,81.42-.43,1.49-9.06-1.51-11.1-3a113.35,113.35,0,0,0-3.71,22.78C207.64,230.93,214.64,252.58,230.24,252.58Z"/><path class="cls-1" d="M432.87,222c-6.6,17.18-24.66,54.92-48.5,54.92-23,0-56.32-26.52-56.32-51.94,0-43.67,25.48-140,44.79-140,16.85,0,31.65,7.48,34.94,12.33-15.2,43-31.23,101.58-28.34,138.92l5.32,1.49C411.89,204.78,439,123,446,85.67c.43-3.38,5.35-4.87,11.92-4.87,15.2,0,37,11.59,36.58,17.93C492.87,114.42,476,189.85,475.2,216c-.82,11.19,2.86,27.64,15.6,27.64,17.27,0,26.3-36.61,26.3-36.61,3.28,0,21.38-.36,21.38,14.57,0,17.55-25.88,51.18-59.17,51.18-39,0-44.79-29.13-43.15-50.45Z"/><path class="cls-1" d="M572.2,155.87c10.25-22.4,18.88-54.14,24.23-71,3.28-10.08,15.63-13.44,32.48-10.08,14.38,3,18.06,9,17.67,16.06-.43,12.71-19.73,36.23-20.56,61.62A11,11,0,0,0,636.7,163c18.91,0,26.3-26.88,28.8-26.88s15.6.74,15.6,11.19c-.4,17.93-17.67,42.57-44.79,42.57-30.83,0-36.58-20.16-37.8-37.34-9.46,20.18-29.62,69.82-31.65,123.24-11.92,5.23-54.67-7.85-54.67-16.06,0-10.86,4.53-35.12,10.7-110.17,2.46-32.13,4.93-70.59,23-70.59,13.14,0,32.87,10.46,32.87,10.46-1.64,19.05-7.42,44.82-9.06,65.36Z"/><path class="cls-1" d="M739.08,82.3c26.7,0,57.93,17.94,57.93,43,0,34.74-16.85,53.41-35.33,53.41-14,0-21.77-6.72-23-17.18a5,5,0,0,1-.43-2.25s14.41-18.29,15.23-41.08c.4-5.21-1.64-8.57-6.17-8.57-19.73,0-41.51,50.42-41.51,105.67,0,34.36,13.14,44.82,31.23,44.82,32.48,0,55.07-39.59,58.35-64.6a43.47,43.47,0,0,1,13.17-2.23c10.28,0,20.13,6.72,20.13,24.27,0,18.67-23,72.83-89.58,72.83-49.32,0-88.36-32.51-88.36-83.65C650.71,157.74,678.66,82.3,739.08,82.3Z"/><path class="cls-1" d="M923.2,253.34c-8.24,13.08-26.73,27.28-49.75,27.28-40.69,0-69.45-28-69.45-75.08,0-66.47,35.36-133.69,93.72-133.69,37.8,0,59.6,16.44,59.6,31.37a18.66,18.66,0,0,1-.85,4.85c4.53,1.51,25.09,1.87,22.2,10.08-12.32,37.72-21.35,75.82-21.77,104.18-.82,16.09,2.07,28,14,28,18.88,0,24.23-22.81,27.12-46.31,0,0,25.06-3,25.06,17.18,0,21.65-19.73,59.39-59.17,59.39-27.94,0-37-18.31-38.22-27.28ZM869.34,250c21,0,43.15-83.26,44-96,0,0-11.49-2.23-16.42-7.83a61.63,61.63,0,0,0,13.56-34.74c0-3,.4-11.57-6.6-11.57-25.88,0-44.79,83.27-46.43,119.88C856.6,241.39,859.89,250,869.34,250Z"/><path class="cls-1" d="M1049.36,138.32s83.83,29.5,83.83,94.46c0,43-31.62,59-67.38,59-43.57,0-86.72-37.34-86.72-66.87,0-17.55,12.35-44.43,30.83-44.43,14.38,0,29.59,12.71,29.59,15.69-.43,11.19-18.49,40-18.49,42.94-.43,3.38,5.32,19.07,26.7,19.07,23.44,0,35.36-16.09,35.36-39.59,0-35.85-43.18-62.37-71.52-65.73-6.57-5.23-14-26.15-12.74-35.85,2-15.69,124.95-44.08,132.73-44.08,5,0,19.73,18.31,19.73,25,0,14.2-30.83,34.73-44,34.73-5.35,0-6.57-10.08-11.92-10.08-13.56.38-42.75,11.21-46.43,14.2Z"/><path class="cls-1" d="M1133.22,93.88c5.75-3.36,27.12-7.85,51.36-11.59,9-25.39,18.49-44.43,24.27-47.42,9-4.49,41.9,12,40.69,15.69l-8.24,24.65,16-1.13c11.52-.74,21.38-2.23,24.66,2.62,2.89,5.23,9.06,5.23,16,8.59,2.89,1.49,10.7,15.69,10.7,17.93,0,2.62-.82,5.6-7.81,5.6-20.13.38-46.43,2.62-71.91,5.23-13.56,44.44-25.91,92.23-25.91,121,0,10.46,4.93,16.06,12.74,16.06,28.37,0,55.89-31,58-49.66,0,0,25.48-4.11,25.48,23.51,0,32.14-46.86,59-85.9,59-35.33,0-62.06-25.76-62.06-65,0-20.54,9.06-60.5,20.56-97.84l-18.91,3C1139.37,126.37,1125.8,98.37,1133.22,93.88Z"/></g></g></svg>