<svg xmlns="http://www.w3.org/2000/svg" viewBox="0 0 97.16 97.3"><defs><style>.cls-1{fill:#fff;}</style></defs><title>Element 1</title><g id="Ebene_2" data-name="Ebene 2"><g id="svg2"><g id="g6"><path id="path10" class="cls-1" d="M18.57,11.92,18.5,23.84l-1.13.07a2.68,2.68,0,0,1-1.48-.21c-.28-.23-.33-2.11-.33-11.73,0-13,.24-11.78-2.12-11.05l-1.29.42L12,12.58l-.12,11.26-1.25.07a3,3,0,0,1-1.6-.21c-.28-.23-.33-1.92-.33-10.21,0-9.15,0-10-.4-10a13.48,13.48,0,0,0-2.68,2.3,13.41,13.41,0,0,0-3.45,4.76c-2,4-2,4.13-2.09,13.4L0,32.18H15.77c8.67,0,15.77-.09,15.77-.19,0-.31,2.8-2.51,4.49-3.52A26.15,26.15,0,0,1,43,25.58a25.61,25.61,0,0,1,11.16.07,27.13,27.13,0,0,1,10.25,5.28l1.46,1.24H97.16l-.09-8.28c-.09-7.72-.14-8.38-.63-10a16.84,16.84,0,0,0-5.05-8.12A17.36,17.36,0,0,0,83.25.68L81.49.14,53.35.07,25.2,0l0,11.92-.07,11.92-1.13.07a2.68,2.68,0,0,1-1.48-.21c-.28-.23-.33-2.14-.33-12V0H18.61Zm67.5-2.86a3.33,3.33,0,0,1,1.18,1.29c.42.84.47,1.38.47,6.5,0,8.07.26,7.81-7.73,7.81-6.06,0-6.79-.16-7.57-1.69-.45-.87-.47-1.29-.4-6.78l.07-5.89L73,9.5l.89-.8h5.76C84.33,8.71,85.5,8.78,86.07,9.06Z"/><path id="path12" class="cls-1" d="M45.76,30a19.44,19.44,0,0,0-16.33,16.1,23.51,23.51,0,0,0,.47,8.61,16.38,16.38,0,0,0,4.94,8c2.75,2.77,4.54,3.92,7.33,4.81A19.51,19.51,0,0,0,67.29,53.88a24.17,24.17,0,0,0,.12-9.27A17.3,17.3,0,0,0,62,35.34a16.91,16.91,0,0,0-9.71-5.19A26.27,26.27,0,0,0,45.76,30Zm5.17,5.82a19.9,19.9,0,0,1,6.58,3.12,15.86,15.86,0,0,1,4.25,7,14.13,14.13,0,0,1-.12,7.13,13.92,13.92,0,0,1-13,9.69,13,13,0,0,1-6.11-1.55A13.49,13.49,0,0,1,35,49.07,13.67,13.67,0,0,1,45.9,35.84,9.87,9.87,0,0,1,50.93,35.81Z"/><path id="path14" class="cls-1" d="M.09,58.15.16,81.81l.54,1.76a17.33,17.33,0,0,0,5.08,8.12,17,17,0,0,0,8.27,5.07l1.86.54H81l1.86-.54A18.69,18.69,0,0,0,92,91.08a20.11,20.11,0,0,0,4.44-7.74L97,81.58,97.07,58l.07-23.52H82.66c-12.6,0-14.45,0-14.45.35a5.84,5.84,0,0,0,.85,1.64,23.8,23.8,0,0,1,1.18,23.33,24.33,24.33,0,0,1-19.34,13.4,24.67,24.67,0,0,1-19.74-7.37,22.53,22.53,0,0,1-4.54-6.78,19.71,19.71,0,0,1-2.21-10,19.23,19.23,0,0,1,.52-5.49,25.22,25.22,0,0,1,2.94-7,7,7,0,0,0,.87-1.69c0-.31-1.83-.35-14.34-.35H0Z"/></g></g></g></svg>