<svg xmlns="http://www.w3.org/2000/svg" viewBox="0 0 1504 1057.78"><defs><style>.cls-1{fill:#fff;}</style></defs><title>Element 1</title><g id="Ebene_2" data-name="Ebene 2"><g id="Ebene_1-2" data-name="Ebene 1"><g id="Layer_1"><path class="cls-1" d="M1416,70.8A197.13,197.13,0,0,0,1305.11,20.5c-91.45-10.24-183.72-15.39-276.3-18C936.82,0,844.44,0,752.26,0S567.72,0,475.72,2.52c-92.59,2.58-184.9,7.74-276.39,18A196.89,196.89,0,0,0,88.49,70.82a205.78,205.78,0,0,0-62,106.53c-13.08,56.72-19.7,115.9-23,175.45C.08,412.6,0,471.64,0,529s0,116.2,3.28,176c3.26,59.52,9.8,118.7,22.89,175.43A206.29,206.29,0,0,0,88.24,987,196.74,196.74,0,0,0,199,1037.29c91.51,10.23,183.81,15.39,276.41,18,92,2.57,184.38,2.57,276.55,2.51s184.59.05,276.58-2.51c92.58-2.58,184.86-7.73,276.36-18A196.84,196.84,0,0,0,1415.66,987a206.77,206.77,0,0,0,62.18-106.57c13-56.73,19.57-115.91,22.85-175.43,3.23-58.69,3.26-118.23,3.25-176h.06v-2.9h-.06c0-114.85,0-236.49-25.78-348.7A206.12,206.12,0,0,0,1416,70.8ZM546.12,757.32V244.25l23.38,12.2Q675.7,311.9,781.57,367.13q127.51,66.54,255.8,133.52l27.17,14.19L1037.31,529,803.37,650.27q-116.8,60.55-233.93,121.24l-23.31,12.08V757.32Z"/></g></g></g></svg>